<svg width="116" height="116" viewBox="0 0 116 116" fill="none" xmlns="http://www.w3.org/2000/svg">
<path d="M108.767 29.9108C103.331 20.493 91.4809 20.4484 79.5617 23.6558C78.0617 14.0111 73.3525 0 59.0691 0C48.1964 0 42.238 10.213 39.0528 22.132C29.955 18.6291 15.4436 15.6951 8.30147 28.0892C2.86601 37.507 8.73443 47.787 17.4682 56.4983C9.87177 62.618 0.0906191 73.7171 7.233 86.0892C12.6696 95.507 24.5195 95.5516 36.4152 92.3442C37.9388 101.988 42.6465 116 56.9313 116C67.8031 116 73.7624 105.765 76.9465 93.8458C86.0679 97.3709 100.556 100.283 107.698 87.9108C113.134 78.515 107.266 68.2354 98.5322 59.5239C106.129 53.382 115.908 42.2827 108.767 29.9108ZM101.215 84.9985C96.4841 93.1639 85.226 90.6381 78.2427 88.0682C79.7896 79.9718 80.2672 71.6914 80.2672 65.7786H76.0369C76.0369 70.9875 75.1952 78.5839 73.3525 85.9759C72.8752 87.8641 72.3296 89.7299 71.7156 91.5489C68.5537 101.033 63.5039 108.925 56.2262 108.925C46.7872 108.925 43.3298 97.9171 42.0781 90.594C49.88 87.8861 57.2723 84.1569 62.3899 81.1782L60.2742 77.5156C55.7708 80.1075 48.7653 83.1797 41.4419 85.272C39.5537 85.8185 37.6658 86.2961 35.7776 86.6581C25.9976 88.6618 16.6498 88.2509 13.0103 81.927C8.30147 73.762 16.0812 65.2792 21.813 60.5015C28.0679 65.8923 34.9812 70.4412 40.1224 73.3976L42.238 69.7371C37.7344 67.1429 31.5694 62.5938 26.0889 57.2718C24.7017 55.9301 23.359 54.5442 22.0851 53.1092C15.4436 45.6261 11.1446 37.3253 14.7839 31.0017C19.493 22.8364 30.7511 25.3621 37.7347 27.932C36.1877 36.0282 35.7099 44.3088 35.7099 50.2217H39.9636C39.9636 45.0128 40.8044 37.4163 42.6465 30.0243C43.1241 28.1361 43.6706 26.2482 44.2848 24.4291C47.4467 14.9447 52.4954 7.07487 59.7742 7.07487C69.2132 7.07487 72.6704 18.0833 73.921 25.4065C66.1204 28.1139 58.7048 31.8436 53.587 34.8222L55.7248 38.4848C60.2063 35.8929 67.2118 32.8208 74.5585 30.7284C76.4231 30.182 78.3113 29.7044 80.1993 29.3423C90.0026 27.3386 99.3504 27.7496 102.99 34.0734C107.698 42.2385 99.919 50.7212 94.1872 55.499C87.9323 50.1081 80.9954 45.5592 75.8778 42.6028L73.7622 46.2632C78.2424 48.8577 84.4296 53.4067 89.8882 58.7286C91.2986 60.0701 92.64 61.4809 93.914 62.9132C100.556 70.3742 104.855 78.6747 101.215 84.9985Z" fill="black"/>
<path d="M58.0007 49.8483C53.4993 49.8483 49.8501 53.4955 49.8501 57.9977C49.8501 62.5 53.4996 66.1494 58.0007 66.1494C62.5011 66.1494 66.1504 62.5 66.1504 57.9977C66.1504 53.4952 62.5011 49.8483 58.0007 49.8483Z" fill="black"/>
</svg>
